<?xml version="1.0" standalone="no"?><svg xmlns="http://www.w3.org/2000/svg" viewBox="0 0 1440 320"><path fill="#fcd1ac" fill-opacity="1" d="M0,128L18.5,128C36.9,128,74,128,111,149.3C147.7,171,185,213,222,234.7C258.5,256,295,256,332,256C369.2,256,406,256,443,240C480,224,517,192,554,176C590.8,160,628,160,665,165.3C701.5,171,738,181,775,160C812.3,139,849,85,886,80C923.1,75,960,117,997,165.3C1033.8,213,1071,267,1108,293.3C1144.6,320,1182,320,1218,298.7C1255.4,277,1292,235,1329,229.3C1366.2,224,1403,256,1422,272L1440,288L1440,320L1421.5,320C1403.1,320,1366,320,1329,320C1292.3,320,1255,320,1218,320C1181.5,320,1145,320,1108,320C1070.8,320,1034,320,997,320C960,320,923,320,886,320C849.2,320,812,320,775,320C738.5,320,702,320,665,320C627.7,320,591,320,554,320C516.9,320,480,320,443,320C406.2,320,369,320,332,320C295.4,320,258,320,222,320C184.6,320,148,320,111,320C73.8,320,37,320,18,320L0,320Z"></path></svg>